<svg id="Flat" height="512" viewBox="0 0 512 512" width="512" xmlns="http://www.w3.org/2000/svg"><g><g><path d="m40 328h240v160h-240z" fill="#804913"/><path d="m80 376h160v48h-160z" fill="#faa231"/><g><path d="m48 312v-106.14a20 20 0 0 1 12.978-18.727l51.022-19.133h48l51.022 19.133a20 20 0 0 1 12.978 18.727v106.14z" fill="#25b1fa"/><path d="m24 304h272v32h-272z" fill="#faa231"/></g><path d="m136 264h-56a8 8 0 0 1 -8-8v-24h16v16h48z" fill="#127bb3"/></g><g><g><path d="m168 168-32 32-32-32 16-32h32z" fill="#ffd4cf"/><g><path d="m152 136h-32l-7.844 15.688 7.38 4.428a32 32 0 0 0 32.928 0l7.38-4.428z" fill="#fbb8b0"/><path d="m176 56h-80v60.676a20 20 0 0 0 9.71 17.15l20 12a20 20 0 0 0 20.58 0l20-12a20 20 0 0 0 9.71-17.15z" fill="#ffd4cf"/></g></g><path d="m175.616 64h-31.616v-32l24.851 4.213a20 20 0 0 1 15.149 19.403 8.384 8.384 0 0 1 -8.384 8.384z" fill="#804913"/><path d="m104 168 32 32-48 8z" fill="#b3e9ff"/><path d="m168 168-32 32 48 8z" fill="#b3e9ff"/><path d="m80 44v-20h52a20 20 0 0 1 20 20v20h-52a20 20 0 0 1 -20-20z" fill="#faa231"/></g><g><path d="m448 384-8-8h-72l-24 8-8 40h72v32h-20a28.032 28.032 0 0 0 -28 28v4h16v-4a12.013 12.013 0 0 1 12-12h56a12.013 12.013 0 0 1 12 12v4h16v-4a28.032 28.032 0 0 0 -28-28h-20v-32h34a30 30 0 0 0 30-30v-10z" fill="#804913"/><path d="m464 336-8-8h-88l-7.544 8a40 40 0 0 0 -39.142 31.76l-25.314 120.24h40l32-104h76a20 20 0 0 0 20-20z" fill="#d76b4c"/><path d="m464 336h-96v-92.445a60.015 60.015 0 0 1 4.291-22.283l9.195-22.986a10 10 0 0 1 9.284-6.286l1.23-8h32l8 8h12a20 20 0 0 1 20 20z" fill="#faa231"/><path d="m336 488h-80a32 32 0 0 1 32-32h56z" fill="#fa5d3f"/><g fill="#ffd4cf"><path d="m368 96v32l-11.658 23.317a6 6 0 0 0 5.366 8.683h14.292v12a20 20 0 0 0 20 20h32a20 20 0 0 0 20-20v-76z"/><path d="m358 296h26a0 0 0 0 1 0 0v40a0 0 0 0 1 0 0h-56a0 0 0 0 1 0 0v-10a30 30 0 0 1 30-30z"/><path d="m136 264h56a0 0 0 0 1 0 0v40a0 0 0 0 1 0 0h-26a30 30 0 0 1 -30-30v-10a0 0 0 0 1 0 0z" transform="matrix(-1 0 0 -1 328 568)"/></g><path d="m352 56h66a30 30 0 0 1 30 30v18a0 0 0 0 1 0 0h-76a20 20 0 0 1 -20-20v-28a0 0 0 0 1 0 0z" fill="#fa5d3f"/></g><g><path d="m216 68v44l-24 32h108a20 20 0 0 0 20-20v-56a20 20 0 0 0 -20-20h-64a20 20 0 0 0 -20 20z" fill="#b3e9ff"/><g fill="#25b1fa"><path d="m240 72h56v16h-56z"/><path d="m240 104h56v16h-56z"/></g></g></g></svg>