<svg id="Layer_1" enable-background="new 0 0 512 512" height="512" viewBox="0 0 512 512" width="512" xmlns="http://www.w3.org/2000/svg"><g><path d="m439.704 34.389h-360.562l-17.808 13.324v441.187c0 12.758 10.342 23.1 23.1 23.1h343.132c12.758 0 23.1-10.342 23.1-23.1v-441.187z" fill="#80b4fb"/><path d="m123.056 488.9v-441.187l17.808-13.324h-61.722l-17.808 13.324v441.187c0 12.758 10.342 23.1 23.1 23.1h61.722c-12.758 0-23.1-10.342-23.1-23.1z" fill="#61a2f9"/><path d="m427.566 0h-304.51l-4.938 5.2v36.915l4.938 5.598h327.61v-24.613c0-12.758-10.342-23.1-23.1-23.1z" fill="#8479c2"/><path d="m123.056 0h-38.622c-12.757 0-23.1 10.342-23.1 23.1v24.613h61.722z" fill="#ff636e"/><path d="m148.679 247.979s45.177 38.288 107.321 38.288c62.143 0 103.007-35.713 103.007-35.713l8.055-9.978v-68.832l-8.055-3.947-103.007 36.056-107.045-36.056-4.017 3.947v68.646z" fill="#6e60b8"/><path d="m198.827 184.595-49.872-16.799-4.017 3.947v68.646l3.741 7.589s19.354 16.4 50.148 27.733z" fill="#6353b2"/><path d="m362.759 241.728c-23.444 22.113-62.517 36.592-106.759 36.592s-83.315-14.48-106.759-36.592c-2.744-2.588-4.303-6.189-4.303-9.961v36.706c0 3.772 1.559 7.373 4.303 9.961 6.627 6.25 14.504 11.89 23.393 16.766l18.926 8.639c18.989 7.118 40.988 11.188 64.44 11.188 44.242 0 83.315-14.48 106.759-36.592 2.744-2.588 4.303-6.189 4.303-9.961v-36.706c0 3.771-1.559 7.372-4.303 9.96z" fill="#ffd064"/><path d="m198.827 269.655c-19.946-6.412-37.015-16.07-49.586-27.927-2.744-2.588-4.303-6.189-4.303-9.961v36.706c0 3.772 1.559 7.373 4.303 9.961 6.627 6.25 14.504 11.89 23.393 16.766l18.926 8.639c2.376.891 4.8 1.734 7.267 2.527z" fill="#ffc250"/><path d="m418.561 147.686-153.095-55.872c-6.114-2.231-12.819-2.231-18.933 0l-153.094 55.872c-2.455.896-2.455 4.368 0 5.264l153.094 55.872c6.114 2.231 12.819 2.231 18.933 0l153.094-55.872c2.455-.896 2.455-4.368.001-5.264z" fill="#8479c2"/><path d="m121.016 162.14 161.842-59.064c2.837-1.035 5.797-1.589 8.769-1.715l-26.16-9.547c-6.114-2.231-12.819-2.231-18.933 0l-153.095 55.872c-2.455.896-2.455 4.368 0 5.264l26.655 9.728c.26-.221.564-.407.922-.538z" fill="#6e60b8"/><g><path d="m175.605 309.618c-4.267 0-7.726-3.459-7.726-7.726v-113.233c0-6.492 3.616-12.31 9.436-15.185l67.987-34.048c3.817-1.91 8.458-.367 10.368 3.449 1.911 3.815.367 8.457-3.449 10.368l-68.026 34.067c-.548.271-.864.78-.864 1.349v113.233c0 4.267-3.459 7.726-7.726 7.726z" fill="#9790cc"/></g><g><path d="m175.605 358.786c-4.267 0-7.726-3.459-7.726-7.726v-29.681c0-4.267 3.459-7.726 7.726-7.726s7.726 3.459 7.726 7.726v29.681c0 4.267-3.459 7.726-7.726 7.726z" fill="#ffc250"/></g><g><path d="m200.561 353.798c-2.974 0-5.809-1.727-7.08-4.626l-11.701-26.687c-1.714-3.908.065-8.465 3.973-10.179 3.909-1.714 8.465.066 10.179 3.973l11.701 26.687c1.714 3.908-.065 8.465-3.973 10.179-1.01.444-2.063.653-3.099.653z" fill="#ffc250"/></g><g><path d="m150.648 353.798c-1.026 0-2.069-.206-3.071-.64-3.914-1.698-5.711-6.248-4.013-10.163l11.72-27.016c1.698-3.913 6.248-5.711 10.163-4.013 3.914 1.698 5.711 6.248 4.013 10.163l-11.72 27.016c-1.263 2.913-4.107 4.653-7.092 4.653z" fill="#ffc250"/></g><g><path d="m366.447 387.452h-220.893c-4.267 0-7.726-3.459-7.726-7.726s3.459-7.726 7.726-7.726h220.893c4.267 0 7.726 3.459 7.726 7.726 0 4.266-3.459 7.726-7.726 7.726z" fill="#cbe2ff"/></g><g><path d="m366.447 420.919h-220.893c-4.267 0-7.726-3.459-7.726-7.726s3.459-7.726 7.726-7.726h220.893c4.267 0 7.726 3.459 7.726 7.726s-3.459 7.726-7.726 7.726z" fill="#cbe2ff"/></g><g><path d="m334.133 454.387h-156.266c-4.267 0-7.726-3.459-7.726-7.726s3.459-7.726 7.726-7.726h156.266c4.267 0 7.726 3.459 7.726 7.726.001 4.267-3.459 7.726-7.726 7.726z" fill="#cbe2ff"/></g><path d="m175.963 294.934c-10.524-.197-19.137 8.742-19.137 19.267v5.2c0 1.396.872 2.643 2.184 3.122l7.129 2.602c6.114 2.231 12.819 2.231 18.933 0l7.128-2.602c1.311-.478 2.184-1.726 2.184-3.122v-5.692c-.001-10.25-8.215-18.583-18.421-18.775z" fill="#ffd064"/><path d="m175.604 324.778v-6.724c0-8.24 3.908-15.723 9.878-20.293-2.777-1.724-6.026-2.761-9.519-2.827-10.524-.197-19.137 8.742-19.137 19.267v5.2c0 1.396.872 2.643 2.184 3.121l7.129 2.602c3.209 1.171 6.581 1.711 9.945 1.652-.305-.603-.48-1.284-.48-1.998z" fill="#ffc250"/><path d="m256.359 123.835c-10.524-.197-19.137 8.742-19.137 19.267v5.2c0 1.396.872 2.643 2.184 3.122l7.129 2.602c6.114 2.231 12.819 2.231 18.933 0l7.128-2.602c1.311-.478 2.184-1.726 2.184-3.122v-5.692c-.001-10.251-8.216-18.584-18.421-18.775z" fill="#9790cc"/></g></svg>