<svg id="Capa_1" enable-background="new 0 0 512 512" height="512" viewBox="0 0 512 512" width="512" xmlns="http://www.w3.org/2000/svg"><g><g><g><g><g><path d="m308.2 148.598c-8.805 0-15.968-7.163-15.968-15.968v-57.768c0-6.859-5.581-12.439-12.44-12.439h-87.944c-6.859 0-12.44 5.58-12.44 12.439v57.768c0 8.805-7.163 15.968-15.968 15.968s-15.968-7.163-15.968-15.968v-57.768c0-24.468 19.906-44.375 44.375-44.375h87.944c24.469 0 44.375 19.906 44.375 44.375v57.768c.002 8.805-7.161 15.968-15.966 15.968z" fill="#365e7d"/></g><g><path d="m0 188.24v205.425c0 25.306 20.515 45.82 45.82 45.82h326.351c25.306 0 45.82-20.515 45.82-45.82v-205.425z" fill="#ddb7a0"/><path d="m425.82 109.499h-65.238c25.306 0 45.82 20.515 45.82 45.82v238.346c0 25.306-20.515 45.82-45.82 45.82h65.238c25.306 0 45.82-20.515 45.82-45.82v-238.346c0-25.306-20.514-45.82-45.82-45.82z" fill="#d6a889"/><path d="m417.992 264.867v-109.548c0-25.306-20.515-45.82-45.82-45.82h-326.352c-25.306 0-45.82 20.515-45.82 45.82v31.867c0 45.856 37.173 83.029 83.029 83.029h305.582c10.345 0 20.247-1.892 29.381-5.348z" fill="#cc9675"/><path d="m425.82 109.499h-65.238c25.306 0 45.82 20.515 45.82 45.82v112.965c37.303-8.147 65.238-41.352 65.238-81.098v-31.867c0-25.306-20.514-45.82-45.82-45.82z" fill="#c4845c"/></g></g></g><g><path d="m105.396 327.233c-11.826 0-21.412-9.586-21.412-21.412v-49.762c0-11.826 9.586-21.412 21.412-21.412 11.826 0 21.412 9.586 21.412 21.412v49.762c0 11.825-9.587 21.412-21.412 21.412z" fill="#f4fbff"/><path d="m83.984 289.797v16.024c0 11.826 9.586 21.412 21.412 21.412 11.826 0 21.412-9.587 21.412-21.412v-16.024z" fill="#e4f6ff"/></g><g><g><g><path d="m283.466 338.442h31.08v65.101h-31.08z" fill="#f4fbff" transform="matrix(.707 .707 -.707 .707 349.908 -102.768)"/><path d="m282.198 416.384-28.584-28.584-8.909 3.181-49.114 49.114c-9.475 9.475-9.475 24.836 0 34.311s24.836 9.475 34.311 0l49.114-49.114z" fill="#407093"/><path d="m292.911 398.324-21.236-21.236c-3.61-3.611-9.464-3.611-13.075 0l-13.894 13.895 34.311 34.311 13.895-13.895c3.61-3.611 3.61-9.465-.001-13.075z" fill="#4a80aa"/><circle cx="391.687" cy="278.311" fill="#e4f6ff" r="120.313"/><circle cx="391.687" cy="278.311" fill="#cbe2ff" r="85.074"/><path d="m451.844 218.155c-25.083-25.083-61.927-31.216-92.776-18.425 10.012 4.151 19.397 10.284 27.537 18.425 33.224 33.223 33.224 87.089 0 120.313-8.141 8.141-17.525 14.274-27.537 18.425 30.849 12.791 67.693 6.658 92.776-18.425 33.223-33.224 33.223-87.09 0-120.313z" fill="#bed8fb"/></g></g></g></g></g></svg>